# xmcd CD database file
#
# Track frame offsets:
#	187
#	21915
#	41252
#	59137
#	80080
#	105312
#	129175
#	149135
#	171617
#	191292
#
# Disc length: 2857 seconds
#
# Revision: 0
# Processed by: cddbd v1.5.1PL0 Copyright (c) Steve Scherf et al.
# Submitted via: CDex 1.51
#
DISCID=8d0b270a
DTITLE=来生たかお - Visitor
DYEAR=1991
DGENRE=J-Pop
TTITLE0=マイ・ラグジュアリー・ナイト
TTITLE1=シングル・ナイト
TTITLE2=セカンド・ラブ
TTITLE3=甘い言葉で…
TTITLE4=シルエット・ロマンス
TTITLE5=燃えつきてディザイア
TTITLE6=スローモーション
TTITLE7=とめどなく
TTITLE8=ねじれたハートで
TTITLE9=トワイライト - 夕暮れ便り -
EXTD=YEAR: 1991. 4.25
EXTT0=
EXTT1=
EXTT2=
EXTT3=
EXTT4=
EXTT5=
EXTT6=
EXTT7=
EXTT8=
EXTT9=
PLAYORDER=
